<svg xmlns="http://www.w3.org/2000/svg" width="16" height="15" viewBox="0 0 16 15">
    <g fill="none" fill-rule="evenodd">
        <path d="M0-1h16v16H0z"/>
        <path fill="#FFF" d="M14.116 6.654L8 12.768 3.73 8.5l6.117-6.116A3 3 0 0 1 11.98 1.5a3 3 0 0 1 2.135.884A3 3 0 0 1 15 4.519c0 .806-.314 1.564-.884 2.135zm-12.232 0A2.998 2.998 0 0 1 1 4.519c0-.806.313-1.565.884-2.135A3 3 0 0 1 4.019 1.5c.806 0 1.564.314 2.134.884l1.14 1.14-4.27 4.269-1.139-1.14zM16 4.519a3.992 3.992 0 0 0-1.178-2.842A3.992 3.992 0 0 0 11.982.5 3.991 3.991 0 0 0 9.14 1.677L8 2.817l-1.14-1.14A3.991 3.991 0 0 0 4.019.5a3.992 3.992 0 0 0-2.842 1.177A3.991 3.991 0 0 0 0 4.519 3.99 3.99 0 0 0 1.177 7.36L8 14.184l6.822-6.823A3.991 3.991 0 0 0 16 4.518z"/>
    </g>
</svg>
