<svg xmlns="http://www.w3.org/2000/svg" xmlns:xlink="http://www.w3.org/1999/xlink" viewBox="0 0 623.62 623.62"><defs><style>.cls-1{fill:url(#linear-gradient);}.cls-2{fill:url(#linear-gradient-2);}.cls-3{fill:url(#linear-gradient-3);}.cls-4{fill:#eaeaea;}.cls-5{fill:#fff;}</style><linearGradient id="linear-gradient" x1="51.2" y1="311.02" x2="572.81" y2="311.02" gradientUnits="userSpaceOnUse"><stop offset="0" stop-color="#fff" stop-opacity="0"/><stop offset="0.16" stop-color="#fcfffc" stop-opacity="0.01"/><stop offset="0.29" stop-color="#f2fff2" stop-opacity="0.05"/><stop offset="0.41" stop-color="#e1ffe1" stop-opacity="0.12"/><stop offset="0.52" stop-color="#c9ffc9" stop-opacity="0.21"/><stop offset="0.63" stop-color="#afa" stop-opacity="0.33"/><stop offset="0.74" stop-color="#84ff84" stop-opacity="0.48"/><stop offset="0.84" stop-color="#57ff57" stop-opacity="0.66"/><stop offset="0.94" stop-color="#24ff24" stop-opacity="0.86"/><stop offset="1" stop-color="lime"/></linearGradient><linearGradient id="linear-gradient-2" x1="442.11" y1="479.31" x2="442.11" y2="50.65" gradientUnits="userSpaceOnUse"><stop offset="0" stop-color="#fff" stop-opacity="0"/><stop offset="0.13" stop-color="#fbfffb" stop-opacity="0.02"/><stop offset="0.26" stop-color="#efffef" stop-opacity="0.06"/><stop offset="0.38" stop-color="#dcffdc" stop-opacity="0.14"/><stop offset="0.5" stop-color="#c1ffc1" stop-opacity="0.24"/><stop offset="0.63" stop-color="#9dff9d" stop-opacity="0.38"/><stop offset="0.75" stop-color="#72ff72" stop-opacity="0.55"/><stop offset="0.87" stop-color="#3fff3f" stop-opacity="0.75"/><stop offset="0.99" stop-color="#05ff05" stop-opacity="0.98"/><stop offset="1" stop-color="lime"/></linearGradient><linearGradient id="linear-gradient-3" x1="442.11" y1="352.74" x2="442.11" y2="50.65" gradientUnits="userSpaceOnUse"><stop offset="0.22" stop-color="lime" stop-opacity="0.1"/><stop offset="0.34" stop-color="lime" stop-opacity="0.22"/><stop offset="0.61" stop-color="lime" stop-opacity="0.53"/><stop offset="1" stop-color="lime"/></linearGradient></defs><title>Artboard 1</title><g id="Layer_4" data-name="Layer 4"><path class="cls-1" d="M522.18,156.45A261,261,0,0,0,311.42,49.65v77.16A183.93,183.93,0,0,1,460,202.08c60.16,82,42.43,197.31-39.61,257.48S223.05,502,162.88,420a183.29,183.29,0,0,1-34-84.26H51.2a260.16,260.16,0,0,0,49.46,129.88C186,582,349.59,607.14,466,521.78S607.55,272.85,522.18,156.45Z"/></g><g id="Layer_4_copy" data-name="Layer 4 copy"><path class="cls-2" d="M460,203.08a184.22,184.22,0,0,1,15.47,192.86c19,25.1,31.87,53.3,36.84,83.37,75.17-90.1,82.42-223,9.9-321.86A261,261,0,0,0,311.42,50.65v77.16A183.93,183.93,0,0,1,460,203.08Z"/></g><g id="Layer_4_copy_2" data-name="Layer 4 copy 2"><path class="cls-3" d="M460,203.08a183.78,183.78,0,0,1,26.11,50.29c27,16.5,52.34,42.34,71.39,75.34a236,236,0,0,1,12.1,24A261.34,261.34,0,0,0,311.42,50.65v77.16A183.93,183.93,0,0,1,460,203.08Z"/></g><g id="Layer_3" data-name="Layer 3"><circle class="cls-4" cx="301.87" cy="88.97" r="69.91"/></g><g id="ball_copy_2" data-name="ball copy 2"><circle class="cls-5" cx="294.46" cy="80.44" r="57.4"/></g><g id="Layer_10" data-name="Layer 10"><polygon class="cls-4" points="333.34 145.41 306.18 147.12 291.13 124.45 303.23 100.08 330.39 98.37 345.44 121.04 333.34 145.41"/><polygon class="cls-4" points="329.2 29.23 323.13 41.45 338.18 64.11 357.16 62.92 329.2 29.23"/></g></svg>