<svg xmlns="http://www.w3.org/2000/svg" width="22" height="22" viewBox="0 0 22 22">
    <g fill="#FFF" fill-rule="evenodd">
        <path d="M10.056 19.945h1.833v-2.207l.744-.197a6.815 6.815 0 0 0 1.783-.754l.67-.405 1.583 1.583 1.296-1.296-1.587-1.587.4-.669c.329-.551.579-1.149.742-1.776l.194-.748h2.23v-1.833h-2.208l-.184-.766a6.813 6.813 0 0 0-.728-1.824l-.384-.664 1.525-1.526L16.67 3.98l-1.502 1.502-.674-.42a6.817 6.817 0 0 0-1.86-.801l-.744-.197V2h-1.833v2.034l-.77.182a6.821 6.821 0 0 0-1.925.781l-.669.399L5.276 3.98 3.98 5.276l1.412 1.413-.405.67c-.362.6-.63 1.25-.793 1.93l-.184.767H2v1.833h2.031l.196.748c.173.667.445 1.301.808 1.884l.419.674-1.474 1.474 1.296 1.296 1.498-1.497.664.384a6.82 6.82 0 0 0 1.848.734l.77.182v2.177zm3.833 2H8.056v-2.632a8.801 8.801 0 0 1-.929-.37l-1.851 1.85L1.15 16.67l1.793-1.793c-.16-.32-.301-.65-.422-.987H0V8.056h2.471c.12-.353.262-.699.426-1.034L1.15 5.276l4.125-4.124L7.03 2.906c.333-.16.675-.3 1.025-.417V0h5.833v2.56c.328.118.648.256.96.412l1.82-1.82 4.125 4.124-1.879 1.879c.137.293.257.594.36.901h2.67v5.833h-2.72a8.69 8.69 0 0 1-.357.854l1.926 1.926-4.125 4.125-1.916-1.916c-.282.136-.57.258-.864.365v2.702z"/>
        <path d="M10.958 8.73a2.259 2.259 0 0 0-2.257 2.256 2.259 2.259 0 0 0 2.257 2.256 2.259 2.259 0 0 0 2.256-2.256 2.259 2.259 0 0 0-2.256-2.257m0 6.513a4.26 4.26 0 0 1-4.256-4.256 4.261 4.261 0 0 1 4.256-4.257 4.261 4.261 0 0 1 4.256 4.257 4.26 4.26 0 0 1-4.256 4.256"/>
    </g>
</svg>
