<svg xmlns="http://www.w3.org/2000/svg" width="21" height="17" viewBox="0 0 21 17">
    <g fill="none" fill-rule="evenodd" stroke="#FFF" stroke-linecap="round">
        <path d="M2.747 7c-.404.159-.594.567-.686.948-.077.315-.108.663.072.944.095.147.24.263.382.376.262.209.529.42.846.558.261.113.552.173.843.174a.74.74 0 0 0 .28-.042.603.603 0 0 0 .206-.152c.198-.209.31-.48.31-.752"/>
        <path d="M3.678 6c-.436.279-.768.676-.656 1.151.044.19.164.355.284.514.263.349.543.692.895.968.26.203.577.374.92.367.508-.01.945-.482.87-.942M4.996 4c-.4.185-.457.374-.699.719-.196.28-.39.624-.248.93.054.116.151.21.246.301l1.317 1.265c.258.248.523.5.858.654.335.154.76.191 1.075.007.39-.226.497-.709.442-1.127M12 2.08c-.595-.492-1.258-1.013-2.08-1.074a3.732 3.732 0 0 0-.843.059c-.372.057-.74.127-1.106.209-.414.093-.895.267-.964.633-.036.192.065.39.22.532.157.141.363.233.573.306.568.2 1.191.285 1.804.245"/>
        <path d="M6.815 2c-.439.013-1.046.129-1.393.385-.208.153-.394.363-.42.612-.018.193.061.382.145.559.343.723.994 1.206 1.523 1.82.191.222.404.442.685.544.175.063.364.077.55.08.24.003.487-.012.702-.112.426-.199.414-.497.376-.946-.039-.448.232-.994 0-1.386"/>
        <path d="M9 4.128c1.149-.69 3.589-2.163 4.987-2.126.22.006.45.024.636.126.327.18.416.565.362.897-.053.331-.216.644-.274.975M15.89 6l.082-.567c.032-.223.06-.464-.056-.662-.068-.116-.18-.204-.29-.289L15 4M16.595 8c.079-.32.277-.46.356-.78.047-.188.09-.392-.023-.564-.071-.107-.196-.187-.317-.265L16 6M3 11a7.643 7.643 0 0 0 1-1M5 14c1.098-.29 2.02-.555 3.124-.821l1.235-.297c2.456-.59 5.028-1.24 6.853-2.855.306-.27.593-.575.723-.945s.072-.816-.238-1.082M18.26 11.5c-.5-.25-1.25-.928-1.748-1.178-.333-.166.25.226 1.748 1.178zM16 14c-.781.301-3.475-1.103-4.762-1.464"/>
        <path d="M4.676 16L1 11.89 2.324 11 6 15.11zM16.324 16L20 11.89 18.676 11 15 15.11z"/>
    </g>
</svg>
