<svg xmlns="http://www.w3.org/2000/svg" xmlns:xlink="http://www.w3.org/1999/xlink" width="24" height="20" viewBox="0 0 24 20">
    <defs>
        <path id="a" d="M0 0h24v20H0z"/>
    </defs>
    <g fill="none" fill-rule="evenodd">
        <mask id="b" fill="#fff">
            <use xlink:href="#a"/>
        </mask>
        <path fill="#FFF" d="M7.548 20c9.057 0 14.01-7.694 14.01-14.365 0-.219-.005-.437-.014-.653A10.162 10.162 0 0 0 24 2.368a9.642 9.642 0 0 1-2.828.795A5.046 5.046 0 0 0 23.338.37a9.72 9.72 0 0 1-3.127 1.225A4.863 4.863 0 0 0 16.617 0c-2.72 0-4.925 2.261-4.925 5.049 0 .396.043.781.128 1.15C7.728 5.99 4.099 3.98 1.67.926a5.13 5.13 0 0 0-.666 2.537 5.08 5.08 0 0 0 2.19 4.203 4.796 4.796 0 0 1-2.23-.632v.065c0 2.445 1.697 4.487 3.95 4.95a4.824 4.824 0 0 1-2.224.086c.627 2.006 2.445 3.466 4.6 3.507A9.727 9.727 0 0 1 0 17.732 13.69 13.69 0 0 0 7.548 20" mask="url(#b)"/>
    </g>
</svg>
