<svg xmlns="http://www.w3.org/2000/svg" width="16" height="12" viewBox="0 0 16 12">
    <g fill="none" fill-rule="evenodd">
        <path d="M0-2h16v16H0z"/>
        <path fill="#FFF" d="M7.994 11.02c-3.05 0-5.665-1.87-6.776-4.52h3.316c.244 1.694 1.7 3 3.46 3a3.502 3.502 0 0 0 3.46-3h3.316c-1.111 2.65-3.726 4.52-6.776 4.52zm2.449-4.52a2.503 2.503 0 0 1-2.449 2 2.503 2.503 0 0 1-2.449-2h4.898zM7.994.98c3.05 0 5.665 1.87 6.777 4.52H1.216C2.33 2.85 4.944.98 7.994.98zm7.318 3.371A8.339 8.339 0 0 0 7.994 0 8.339 8.339 0 0 0 .677 4.351 8.301 8.301 0 0 0 0 6c.169.578.394 1.13.676 1.649A8.338 8.338 0 0 0 7.994 12a8.338 8.338 0 0 0 7.318-4.351A8.306 8.306 0 0 0 15.988 6a8.301 8.301 0 0 0-.676-1.649z"/>
    </g>
</svg>
