<svg xmlns="http://www.w3.org/2000/svg" width="57" height="64" viewBox="0 0 57 64">
    <g fill="#FEFEFE" fill-rule="evenodd">
        <path d="M0 54v10h8v-2.222H2.693v-1.73h3.985v-2.191H2.693v-1.635h5.161V54zM9 54v10h7v-2.222h-4.531V54zM18 54v10h8v-2.222h-5.306v-1.73h3.983v-2.191h-3.983v-1.635h5.161V54zM35.196 54l-2.589 6.651h-.066L29.953 54H27l4.015 10h2.97L38 54zM38 54v10h8v-2.222h-5.306v-1.73h3.983v-2.191h-3.983v-1.635h5.162V54zM54.51 54v5.54L50.585 54H48v10h2.49v-5.92L54.83 64H57V54zM52.316 0L48 4.632V39h9V0zM7.109 0H.016v7.092l12.4 12.4L0 31.908V39h7.092L19.51 26.584l12.399 12.398H39v-7.093L26.6 19.493 38.956 7.137V.045h-7.092L19.509 12.4z"/>
    </g>
</svg>
