<svg xmlns="http://www.w3.org/2000/svg" xmlns:xlink="http://www.w3.org/1999/xlink" width="180" height="58" viewBox="0 0 180 58">
    <defs>
        <path id="a" d="M.206.166h6.92v7.839H.206z"/>
        <path id="c" d="M.317.166h6.92v7.839H.317z"/>
        <path id="e" d="M0 .066h41.859v42.221H0z"/>
        <path id="g" d="M.062.066H41.92v42.221H.062z"/>
    </defs>
    <g fill="none" fill-rule="evenodd">
        <path fill="#FFF" d="M43.958 55.588c.364-.21.65-.501.857-.875.208-.375.311-.8.311-1.277a2.59 2.59 0 0 0-.31-1.277 2.24 2.24 0 0 0-.858-.875 2.409 2.409 0 0 0-1.222-.314c-.451 0-.859.104-1.222.314-.365.208-.65.5-.857.875a2.59 2.59 0 0 0-.312 1.277c0 .477.104.902.312 1.277.207.374.492.666.857.875.363.209.77.313 1.222.313.45 0 .858-.104 1.222-.313m-3.367 1.315a3.82 3.82 0 0 1-1.495-1.425c-.36-.606-.54-1.286-.54-2.042 0-.756.18-1.437.54-2.042a3.817 3.817 0 0 1 1.495-1.426c.637-.345 1.352-.517 2.145-.517.793 0 1.506.172 2.139.517a3.87 3.87 0 0 1 1.496 1.426c.363.605.545 1.286.545 2.042 0 .756-.182 1.436-.545 2.042a3.873 3.873 0 0 1-1.496 1.425c-.633.345-1.346.518-2.14.518-.792 0-1.507-.173-2.144-.518"/>
        <g transform="translate(47.976 49.416)">
            <mask id="b" fill="#fff">
                <use xlink:href="#a"/>
            </mask>
            <path fill="#FFF" d="M1.117 7.09C.51 6.483.207 5.613.207 4.482V.166h1.767v4.25c0 1.38.568 2.07 1.703 2.07.553 0 .975-.167 1.266-.502.29-.333.436-.857.436-1.569V.166h1.747v4.315c0 1.13-.304 2-.912 2.61-.607.609-1.457.914-2.548.914-1.092 0-1.941-.305-2.549-.914" mask="url(#b)"/>
        </g>
        <path fill="#FFF" d="M61.268 51.383c-.277-.232-.68-.347-1.211-.347h-1.44v2.686h1.44c.53 0 .934-.118 1.211-.352.277-.235.415-.565.415-.991 0-.433-.138-.765-.415-.996zm.448 5.906l-1.474-2.147h-1.626v2.147h-1.768v-7.706h3.307c.677 0 1.264.113 1.763.34.498.228.882.551 1.151.97.27.418.404.913.404 1.486s-.137 1.066-.41 1.48c-.272.415-.66.732-1.161.953l1.713 2.477h-1.9zM72.88 55.588c.365-.21.65-.501.858-.875.207-.375.31-.8.31-1.277a2.59 2.59 0 0 0-.31-1.277 2.24 2.24 0 0 0-.857-.875 2.409 2.409 0 0 0-1.223-.314c-.45 0-.858.104-1.222.314-.364.208-.65.5-.857.875a2.59 2.59 0 0 0-.311 1.277c0 .477.104.902.311 1.277.208.374.493.666.857.875.364.209.771.313 1.222.313.451 0 .859-.104 1.223-.313m-3.367 1.315a3.82 3.82 0 0 1-1.495-1.425c-.361-.606-.541-1.286-.541-2.042 0-.756.18-1.437.54-2.042a3.817 3.817 0 0 1 1.496-1.426c.637-.345 1.351-.517 2.144-.517.794 0 1.506.172 2.14.517a3.87 3.87 0 0 1 1.495 1.426c.364.605.545 1.286.545 2.042 0 .756-.181 1.436-.545 2.042a3.873 3.873 0 0 1-1.495 1.425c-.634.345-1.346.518-2.14.518-.793 0-1.507-.173-2.144-.518M78.644 51.036h-2.445v-1.453h6.658v1.453h-2.445v6.253h-1.768zM90.813 49.583v7.706h-1.768v-3.16h-3.47v3.16h-1.769v-7.706h1.768v3.038h3.471v-3.038zM98.54 55.858v1.43h-5.915v-7.705h5.773v1.43h-4.016v1.674h3.547v1.387h-3.547v1.784zM104.368 51.383c-.276-.232-.68-.347-1.211-.347h-1.44v2.686h1.44c.531 0 .935-.118 1.211-.352.277-.235.415-.565.415-.991 0-.433-.138-.765-.415-.996zm.448 5.906l-1.474-2.147h-1.626v2.147h-1.768v-7.706h3.307c.677 0 1.264.113 1.763.34.499.228.882.551 1.151.97.27.418.404.913.404 1.486s-.136 1.066-.409 1.48c-.273.415-.66.732-1.162.953l1.713 2.477h-1.899zM112.603 56.909a3.8 3.8 0 0 1-1.484-1.42c-.36-.606-.54-1.29-.54-2.053 0-.764.18-1.448.54-2.053a3.8 3.8 0 0 1 1.484-1.42c.63-.342 1.337-.513 2.123-.513.662 0 1.26.118 1.795.353.535.235.984.572 1.348 1.013l-1.135 1.056c-.516-.601-1.157-.902-1.92-.902-.474 0-.896.104-1.267.314-.37.208-.66.5-.868.875-.207.374-.31.8-.31 1.277 0 .477.103.903.31 1.277.208.374.497.666.868.875.371.209.793.313 1.266.313.764 0 1.405-.304 1.921-.913l1.135 1.057a3.54 3.54 0 0 1-1.353 1.023 4.459 4.459 0 0 1-1.801.353c-.779 0-1.483-.17-2.112-.512M119.059 49.583h1.768v6.253h3.83v1.453h-5.598z"/>
        <g transform="translate(125.17 49.416)">
            <mask id="d" fill="#fff">
                <use xlink:href="#c"/>
            </mask>
            <path fill="#FFF" d="M1.228 7.09C.621 6.483.317 5.613.317 4.482V.166h1.768v4.25c0 1.38.568 2.07 1.703 2.07.553 0 .975-.167 1.265-.502.292-.333.437-.857.437-1.569V.166h1.747v4.315c0 1.13-.305 2-.912 2.61-.607.609-1.457.914-2.548.914-1.092 0-1.941-.305-2.549-.914" mask="url(#d)"/>
        </g>
        <path fill="#FFF" d="M139.026 55.714c.237-.154.355-.392.355-.715 0-.639-.47-.958-1.408-.958h-2.063v1.905h2.063c.466 0 .817-.077 1.053-.232zm-3.116-4.788v1.816h1.757c.437 0 .768-.077.994-.231.225-.154.338-.382.338-.683 0-.3-.113-.526-.338-.677-.226-.15-.557-.225-.994-.225h-1.757zm4.88 3.055c.246.326.37.728.37 1.205 0 .675-.26 1.195-.78 1.558s-1.28.545-2.276.545h-3.95v-7.707h3.732c.931 0 1.646.18 2.144.54.499.36.748.848.748 1.464 0 .375-.09.709-.268 1.002a1.872 1.872 0 0 1-.747.693c.437.14.779.373 1.026.7zM47.64 8.761h12.95v33.124h9.367V8.76h12.951V1.063H47.64z"/>
        <g transform="translate(0 .298)">
            <mask id="f" fill="#fff">
                <use xlink:href="#e"/>
            </mask>
            <path fill="#FFF" d="M20.93.066C9.37.066 0 9.518 0 21.176c0 11.66 9.37 21.111 20.93 21.111 11.558 0 20.929-9.451 20.929-21.11 0-11.66-9.37-21.111-20.93-21.111m0 9.46c6.37 0 11.551 5.227 11.551 11.65 0 6.425-5.182 11.651-11.55 11.651-6.37 0-11.551-5.226-11.551-11.65S14.56 9.526 20.929 9.526" mask="url(#f)"/>
        </g>
        <g transform="translate(137.796 .298)">
            <mask id="h" fill="#fff">
                <use xlink:href="#g"/>
            </mask>
            <path fill="#FFF" d="M20.991.066C9.432.066.061 9.518.061 21.176c0 11.66 9.371 21.111 20.93 21.111s20.93-9.451 20.93-21.11C41.92 9.517 32.55.066 20.99.066m0 9.46c6.369 0 11.55 5.227 11.55 11.65 0 6.425-5.181 11.651-11.55 11.651-6.369 0-11.55-5.226-11.55-11.65S14.621 9.526 20.99 9.526" mask="url(#h)"/>
        </g>
        <path fill="#FFF" d="M102.74 8.761v17.107l2.852-2.878h4.779c2.814 0 4.953-.621 6.417-1.866 1.465-1.243 2.198-2.993 2.198-5.248 0-2.294-.733-4.053-2.198-5.278-1.464-1.224-3.603-1.837-6.417-1.837h-7.632zm17.489-5.89c2.64 1.206 4.673 2.916 6.1 5.132 1.425 2.216 2.139 4.84 2.139 7.873 0 3.032-.723 5.647-2.169 7.843-1.445 2.197-3.498 3.878-6.157 5.045l9.077 13.12h-10.06l-7.685-11.196h-8.735v11.197h-9.366V1.063h17.519c3.584 0 6.696.604 9.337 1.808z"/>
    </g>
</svg>
